<?xml version="1.0" encoding="UTF-8" standalone="no"?>
<svg
   xmlns:dc="http://purl.org/dc/elements/1.1/"
   xmlns:cc="http://creativecommons.org/ns#"
   xmlns:rdf="http://www.w3.org/1999/02/22-rdf-syntax-ns#"
   xmlns:svg="http://www.w3.org/2000/svg"
   xmlns="http://www.w3.org/2000/svg"
   xmlns:sodipodi="http://sodipodi.sourceforge.net/DTD/sodipodi-0.dtd"
   xmlns:inkscape="http://www.inkscape.org/namespaces/inkscape"
   version="1.1"
   id="svg2"
   xml:space="preserve"
   width="282.20001"
   height="253.84"
   viewBox="0 0 282.20001 253.84"
   sodipodi:docname="Fitz_logo_white.eps"><metadata
     id="metadata8"><rdf:RDF><cc:Work
         rdf:about=""><dc:format>image/svg+xml</dc:format><dc:type
           rdf:resource="http://purl.org/dc/dcmitype/StillImage" /></cc:Work></rdf:RDF></metadata><defs
     id="defs6" /><sodipodi:namedview
     pagecolor="#ffffff"
     bordercolor="#666666"
     borderopacity="1"
     objecttolerance="10"
     gridtolerance="10"
     guidetolerance="10"
     inkscape:pageopacity="0"
     inkscape:pageshadow="2"
     inkscape:window-width="640"
     inkscape:window-height="480"
     id="namedview4" /><g
     id="g10"
     inkscape:groupmode="layer"
     inkscape:label="ink_ext_XXXXXX"
     transform="matrix(1.3333333,0,0,-1.3333333,0,253.84)"><g
       id="g12"
       transform="scale(0.1)"><path
         d="m 1674.66,493.461 c -7.29,4.098 -11.85,7.258 -11.85,17.301 v 136.117 c 0,42.91 -36.49,62.5 -67.54,62.5 -29.24,0 -58.03,-21.41 -72.19,-40.117 -9.12,26 -36.47,40.117 -62.05,40.117 -31.08,0 -55.75,-22.777 -66.7,-31.449 v 31.449 l -55.64,-10.938 c 7.75,-2.293 16.42,-4.101 16.42,-18.222 V 510.762 c 0,-10.043 -4.57,-13.203 -11.88,-17.301 h 63.89 c -7.33,4.098 -12.79,7.258 -12.79,17.301 v 149.359 c 8.67,10.508 25.11,23.301 46.13,23.301 36.56,0 47.52,-22.383 47.52,-48.422 V 510.762 c 0,-10.043 -4.57,-13.203 -11.88,-17.301 h 63.42 c -7.29,4.098 -11.87,7.258 -11.87,17.301 v 137.019 c 0,2.297 0,4.571 -0.92,6.848 11.42,16 31.08,28.793 49.33,28.793 35.21,0 48,-23.301 48,-50.25 v -122.41 c 0,-10.043 -5.95,-13.203 -12.79,-17.301 h 63.39 z m -384.89,10.488 c -14.16,2.262 -18.28,12.301 -18.28,25.992 0,7.758 0,179.438 0,179.438 l -54.74,-10.957 c 7.32,-2.293 15.99,-4.102 15.99,-18.262 V 539.512 c -13.24,-12.774 -26.03,-23.262 -48.42,-23.262 -26.05,0 -47.05,20.078 -47.05,58.891 0,26.48 0,134.238 0,134.238 l -55.21,-10.957 c 6.86,-2.293 15.53,-4.102 15.53,-18.262 0,0 0,-87.66 0,-105.019 0,-68.012 42.43,-85.782 69.37,-85.782 32.43,0 52.99,16.852 66.7,31.911 0,-20.532 5.48,-25.551 16.41,-31.911 l 39.7,14.59 z M 993.035,631.762 H 888.879 c 3.648,31.539 21.469,61.25 54.82,61.25 25.129,0 49.336,-16.91 49.336,-61.25 z m 41.955,-16.84 c 0,67.558 -46.982,94.457 -85.81,94.457 -69.883,0 -104.992,-61.18 -104.992,-110.899 0,-54.359 39.21,-109.121 103.621,-109.121 48.879,0 83.991,36.481 85.351,73.942 -8.66,-21.481 -41.043,-47.52 -73.015,-47.52 -48.426,0 -73.094,40.199 -73.094,86.348 0,5.019 0,9.141 0,12.793 H 1034.99 Z M 798.469,552.781 c 0,37.457 -31.91,54.821 -61.141,71.707 -24.226,13.703 -38.851,22.391 -38.851,41.571 0,11.871 10.972,27.402 34.281,27.402 27.871,0 42.922,-28.32 50.211,-52.07 v 54.781 c -20.973,10.937 -38.328,13.207 -50.211,13.207 -50.688,0 -67.547,-33.277 -67.547,-55.649 0,-26.05 11.387,-40.66 46.977,-61.66 31.992,-18.73 48.441,-25.582 48.441,-47.968 0,-10.954 -8.68,-36.543 -41.582,-36.543 -30.141,0 -50.649,30.16 -57.949,62.132 v -58.929 c 15.05,-9.571 35.101,-21.403 60.687,-21.403 33.36,0 76.684,21.403 76.684,63.422 z M 613.555,503.949 c -14.157,2.262 -18.262,12.301 -18.262,25.992 0,7.758 0,179.438 0,179.438 l -54.746,-10.957 c 7.308,-2.293 15.992,-4.102 15.992,-18.262 V 539.512 c -13.254,-12.774 -26.043,-23.262 -48.43,-23.262 -26.043,0 -47.058,20.078 -47.058,58.891 0,26.48 0,134.238 0,134.238 l -55.192,-10.957 c 6.852,-2.293 15.528,-4.102 15.528,-18.262 0,0 0,-87.66 0,-105.019 0,-68.012 42.406,-85.782 69.359,-85.782 32.438,0 53,16.852 66.703,31.911 0,-20.532 5.473,-25.551 16.414,-31.911 l 39.692,14.59 z M 349.691,493.461 c -7.304,4.098 -11.871,10.449 -11.871,20.488 V 783.34 c 0,10.512 4.567,16.898 11.871,20.551 H 290.844 L 191.742,569.672 91.2656,803.891 H 29.6758 C 37.4414,800.238 43.832,792.012 43.832,783.34 V 513.949 c 0,-10.039 -4.5625,-16.39 -11.8672,-20.488 h 46.0586 c -7.3086,4.098 -12.789,10.449 -12.789,20.488 v 228.77 c 0,4.101 -0.9063,11.871 -0.9063,11.871 l 4.1055,-11.871 110.5194,-255.649 112.809,262.95 3.195,10.511 c 0,0 -0.914,-5.043 -0.914,-9.59 V 513.949 c 0,-10.039 -4.566,-16.39 -11.875,-20.488 h 67.523 v 0"
         style="fill:#ffffff;fill-opacity:1;fill-rule:nonzero;stroke:none"
         id="path14" /><path
         d="m 2116.47,1041.38 c -7.3,4.08 -11.87,7.26 -11.87,17.3 v 136.1 c 0,42.92 -36.47,62.51 -67.52,62.51 -29.24,0 -58.03,-21.4 -72.19,-40.13 -9.12,26.01 -36.48,40.13 -62.05,40.13 -31.07,0 -55.74,-22.77 -66.7,-31.45 v 31.45 l -55.66,-10.93 c 7.77,-2.27 16.44,-4.11 16.44,-18.24 v -169.44 c 0,-10.04 -4.57,-13.22 -11.87,-17.3 h 63.87 c -7.31,4.08 -12.78,7.26 -12.78,17.3 v 149.36 c 8.67,10.49 25.12,23.28 46.14,23.28 36.54,0 47.5,-22.38 47.5,-48.41 v -124.23 c 0,-10.04 -4.56,-13.22 -11.86,-17.3 h 63.42 c -7.31,4.08 -11.88,7.26 -11.88,17.3 v 137.02 c 0,2.28 0,4.57 -0.92,6.85 11.43,15.98 31.06,28.77 49.34,28.77 35.18,0 47.97,-23.28 47.97,-50.24 v -122.4 c 0,-10.04 -5.94,-13.22 -12.79,-17.3 h 63.41 z m -436.89,45.16 c -12.79,-13.25 -29.69,-23.75 -52.09,-23.75 -21.48,0 -34.73,13.69 -34.73,37.91 0,23.28 16.45,34.7 37.93,42.47 21.47,7.31 34.26,10.04 48.89,17.35 v -73.98 z m 51.54,-34.24 c -14.63,2.75 -13.71,9.57 -13.71,20.99 0,7.76 0,91.8 0,122.41 0,53.85 -45.17,61.59 -71.64,61.59 -36.97,0 -55.23,-11.83 -72.13,-22.77 l 0.92,-56.64 c 10.96,32.89 26.93,62.12 65.72,62.12 28.79,0 39.3,-20.55 39.3,-39.73 0,-2.29 0,-17.37 -1.84,-19.19 -14.16,-15.08 -68.98,-21.93 -93.18,-36.54 -23.71,-14.61 -30.55,-34.25 -30.55,-51.61 0,-19.64 14.12,-55.66 54.75,-55.66 32.44,0 57.11,18.21 71.27,33.28 0.92,-21.91 5.47,-26.92 15.96,-33.74 l 35.13,15.49 z m -226.93,-10.92 c -7.31,4.08 -11.88,7.26 -11.88,17.3 v 198.66 l -55.64,-10.96 c 7.3,-2.29 15.98,-4.11 15.98,-18.27 v -169.43 c 0,-10.04 -5.02,-13.22 -11.86,-17.3 h 63.4 z m -9.59,285.35 c 0,11.85 -10.49,21.88 -22.34,21.88 -12.31,0 -22.8,-10.03 -22.8,-21.88 0,-12.78 10.49,-23.27 22.8,-23.27 11.85,0 22.34,10.49 22.34,23.27 z m -113.69,-285.35 c -7.31,4.08 -11.86,7.26 -11.86,17.3 v 297.23 l -56.56,-10.95 c 8.22,-2.74 16.88,-4.11 16.88,-18.27 v -268.01 c 0,-10.04 -5.02,-13.22 -11.86,-17.3 h 63.4 z m -124.18,0 c -7.33,4.08 -11.88,7.26 -11.88,17.3 v 297.23 l -56.56,-10.95 c 8.22,-2.74 16.9,-4.11 16.9,-18.27 v -268.01 c 0,-10.04 -5.02,-13.22 -11.88,-17.3 h 63.42 z m -124.2,0 c -7.31,4.08 -11.88,7.26 -11.88,17.3 v 198.66 l -55.64,-10.96 c 7.3,-2.29 15.98,-4.11 15.98,-18.27 v -169.43 c 0,-10.04 -5.02,-13.22 -11.86,-17.3 h 63.4 z m -9.59,285.35 c 0,11.85 -10.49,21.88 -22.34,21.88 -12.31,0 -22.8,-10.03 -22.8,-21.88 0,-12.78 10.49,-23.27 22.8,-23.27 11.85,0 22.34,10.49 22.34,23.27 z m -94.85,-74.92 h -57.996 c 11.871,-4.11 18.261,-15.51 13.699,-26.03 L 934.48,1108.9 891.563,1230.35 c -3.2,9.59 1.371,17.35 15.062,21.46 h -84.473 c 13.703,-3.2 19.641,-8.21 24.2,-18.26 l 6.851,-15.07 -42.922,-111.41 -44.289,123.28 c -3.648,10.5 1.371,17.35 14.16,21.46 h -79.91 c 10.051,-4.11 16.903,-9.59 21.922,-22.36 l 78.078,-192.64 62.551,156.1 57.527,-156.1 84.93,191.26 c 3.19,7.76 11.87,19.17 22.84,23.74 z M 682.074,1082.43 c -5.019,-9.14 -7.301,-20.11 -26.941,-21.48 -43.828,-2.72 -81.727,-2.27 -95.426,-2.27 l 118.258,193.13 H 514.961 l -1.367,-34.65 c 4.105,9.14 10.5,15.53 24.652,16.45 21.461,0.91 64.383,0.91 84.93,0 L 504.004,1041.38 h 175.793 l 2.277,41.05 z m -194.078,-14.16 c -6.394,-5.48 -10.961,-11.88 -29.223,-11.88 -14.156,0 -41.55,4.57 -41.55,47.5 v 128.8 h 63.925 v 19.12 h -63.011 v 42.01 l -59.297,-61.13 h 19.633 v -129.26 c 0,-43.84 26.898,-66.16 63.406,-66.16 26.484,0 45.66,19.12 46.117,31 z m -181.723,-26.89 c -7.304,4.08 -11.871,7.26 -11.871,17.3 v 198.66 l -55.648,-10.96 c 7.305,-2.29 15.98,-4.11 15.98,-18.27 v -169.43 c 0,-10.04 -5.023,-13.22 -11.867,-17.3 h 63.406 z m -9.589,285.35 c 0,11.85 -10.489,21.88 -22.344,21.88 -12.309,0 -22.801,-10.03 -22.801,-21.88 0,-12.78 10.492,-23.27 22.801,-23.27 11.855,0 22.344,10.49 22.344,23.27 z m -84.434,-12.77 -0.453,37.84 H 29.6719 c 7.3047,-3.64 12.7851,-10.01 12.7851,-20.48 v -269.45 c 0,-10.96 -4.5664,-16.41 -12.7851,-20.49 h 69.3476 c -8.2187,4.08 -13.6953,9.53 -13.6953,20.49 l 0.9063,142.51 H 161.57 c 6.395,0 13.7,-7.31 15.985,-12.79 v 44.25 c -2.285,-5.49 -9.59,-12.8 -15.985,-12.8 H 86.2305 v 110.1 c 0,0 76.2535,-1.37 87.2105,-1.82 22.375,-0.46 32.418,-6.39 38.809,-17.36 v 0"
         style="fill:#ffffff;fill-opacity:1;fill-rule:nonzero;stroke:none"
         id="path16" /><path
         d="m 675.707,1727.59 h -104.16 c 3.652,31.53 21.473,61.23 54.82,61.23 25.121,0 49.34,-16.9 49.34,-61.23 z m 41.949,-16.84 c 0,67.56 -46.976,94.46 -85.804,94.46 -69.883,0 -104.997,-61.17 -104.997,-110.91 0,-54.37 39.215,-109.12 103.625,-109.12 48.872,0 83.977,36.48 85.348,73.94 -8.66,-21.47 -41.039,-47.51 -73.019,-47.51 -48.418,0 -73.09,40.2 -73.09,86.35 0,5.02 0,9.13 0,12.79 H 717.656 Z M 474.75,1589.29 c -7.758,4.09 -11.867,7.26 -11.867,17.3 v 135.2 c 0,42 -32.828,63.42 -68.449,63.42 -30.157,0 -58.938,-23.69 -68.989,-32.37 v 130.99 l -55.644,-10.96 c 7.304,-2.74 15.976,-5.02 15.976,-18.26 v -268.02 c 0,-10.04 -4.105,-13.21 -11.871,-17.3 h 64.332 c -8.222,4.09 -12.793,7.26 -12.793,17.3 v 147.98 c 8.68,11.88 29.239,23.75 49.797,23.75 37.461,0 48.883,-24.66 48.883,-51.61 v -120.12 c 0,-10.04 -5.023,-13.21 -12.332,-17.3 h 62.957 z m -234.184,270.76 -0.461,39.67 H 0 v -39.67 c 4.10547,7.31 12.7813,17.35 23.7383,17.81 0,0 40.6406,3.19 74.8828,3.19 v -271.26 c 0,-10.05 -4.1094,-16.41 -11.8672,-20.5 h 67.5191 c -7.308,4.09 -11.875,10.45 -11.875,20.5 v 271.26 c 33.332,0 74.426,-3.19 74.426,-3.19 11.871,-0.46 19.176,-10.5 23.742,-17.81 v 0"
         style="fill:#ffffff;fill-opacity:1;fill-rule:nonzero;stroke:none"
         id="path18" /><path
         d="m 1666.1,31.9219 c -9.83,-16.7813 -19.96,-16.5117 -48.73,-16.7813 -12.54,0 -25.06,1.0703 -30.9,1.5977 v 82.0703 h 43.42 c 3.73,0 8,-4.2578 9.32,-7.457 v 25.7964 c -1.32,-3.199 -5.59,-7.457 -9.32,-7.457 h -43.42 v 64.219 c 0,0 40.76,-0.531 45.81,-0.531 11.46,0 17.05,-3.199 22.38,-9.34 l -0.52,20.77 h -100.15 c 4.28,-2.129 7.47,-5.86 7.47,-11.981 V 15.6719 c 0,-6.37112 -3.19,-9.55081 -7.98,-11.94143 h 107.04 l 5.58,28.19143 z m -161.66,48.75 h -39.38 c 4,-2.4102 6.92,-6.1211 6.92,-12 V 25.5313 c -17.32,-11.7227 -37.58,-12.5196 -45.56,-12.5196 -55.69,0 -75.94,45.8164 -75.94,84.1797 0,43.1366 25.86,78.8476 77.01,78.8476 12.53,0 48.49,-5.859 62.58,-43.949 0,0.531 -1.86,39.961 -1.86,39.961 -21.31,9.051 -41.27,15.14 -63.12,15.14 -68.2,0 -102.53,-48.179 -102.53,-93.4605 0,-55.6797 46.84,-92.40237 99.33,-92.40237 19.98,0 57.01,6.89062 79.09,20.47267 -0.27,0.5273 -3.74,5.8594 -3.74,11.4375 v 35.4336 c 0,5.8789 2.93,9.5898 7.2,12 z m -249.5,16.5195 c 0,-39.6914 -17.61,-82.0508 -78.34,-82.0508 -8,0 -20.52,0 -30.11,0.5313 V 172.852 c 5.86,1.058 23.99,0.527 33.83,0.527 55.16,0 74.62,-43.16 74.62,-76.1876 z m 27.65,0 c 0,23.1796 -13.82,87.6176 -102.27,87.6176 h -66.29 c 4.26,-2.129 6.92,-5.86 6.92,-11.957 V 15.6719 c 0,-5.84377 -2.66,-9.55081 -6.92,-11.94143 h 61.24 c 75.93,0 107.32,50.83983 107.32,93.46093 z M 1061.27,3.73047 c -4,2.37109 -6.93,6.07812 -6.93,11.94143 V 172.809 c 0,6.14 2.93,9.871 6.93,12 h -39.39 c 4.27,-2.129 7.2,-5.86 7.2,-12 V 15.6719 c 0,-5.86331 -2.93,-9.57034 -7.2,-11.94143 h 39.39 z M 929.199,139.551 c 0,-27.992 -19.988,-39.9807 -40.238,-39.9807 -6.93,0 -15.465,0.5317 -15.465,0.5317 v 73.277 c 0,0 7.992,0.801 19.988,0.801 28.254,0 35.715,-22.11 35.715,-34.629 z M 996.816,3.73047 c 0,0 -11.187,4.21875 -17.046,10.60933 -11.45,12.5196 -39.93,61.2891 -39.93,61.2891 -3.988,5.8594 -11.442,17.0508 -25.832,19.9805 16.519,1.332 42.062,15.9496 42.062,44.7186 0,16.801 -11.441,44.481 -64.722,44.481 h -50.047 c 3.996,-2.129 7.195,-5.84 7.195,-11.981 V 15.6719 c 0,-5.86331 -3.199,-9.57034 -7.195,-11.94143 h 39.656 c -4,2.37109 -7.461,6.07812 -7.461,11.94143 v 73.2773 c 0,0 10.664,0 15.465,0 13.848,0 19.445,-11.4492 26.375,-22.1094 9.332,-14.9179 18.91,-31.1914 32.48,-51.1679 3.993,-5.5938 11.442,-12.74221 21.832,-12.48049 l 27.168,0.53906 z M 769.656,56.4492 c 0,-39.7109 -38.91,-42.1094 -55.695,-42.1094 -7.723,0 -12.52,0.8008 -12.52,0.8008 0,33.0508 0,78.8711 0,78.8711 0,0 13.055,0.5391 21.317,0.5391 22.379,0 46.898,-6.9297 46.898,-38.1016 z m -13.843,85.4918 c 0,-33.582 -30.125,-36.25 -43.184,-36.25 -6.391,0 -11.188,0.539 -11.188,0.539 0,20.258 0,67.149 0,67.149 0,0 6.125,0.531 17.586,0.531 17.594,0 36.786,-8.789 36.786,-31.969 z m 42.046,-88.1715 c 0,43.9688 -52.722,47.6795 -52.722,47.6795 0.008,0 35.941,10.641 35.941,42.09 0,35.68 -43.387,41.27 -61.515,41.27 H 668.98 c 4.79,-2.129 7.461,-5.84 7.461,-11.981 V 15.6719 c 0,-5.84377 -2.671,-9.57034 -7.461,-11.94143 h 57.508 c 56.996,0 71.371,29.25783 71.371,50.03903 z M 616.211,3.73047 c -4.262,2.37109 -6.926,6.07812 -6.926,11.94143 V 172.809 c 0,6.14 2.664,9.871 6.926,12 H 581.887 L 524.07,48.1719 465.461,184.809 h -35.93 c 4.532,-2.129 8.262,-6.938 8.262,-12 V 15.6719 c 0,-5.86331 -2.664,-9.57034 -6.93,-11.94143 h 26.871 c -4.261,2.37109 -7.461,6.07812 -7.461,11.94143 V 149.121 c 0,2.391 -0.527,6.918 -0.527,6.918 l 2.395,-6.918 L 516.609,0 l 65.809,153.379 1.863,6.109 c 0,0 -0.531,-2.929 -0.531,-5.578 V 15.6719 c 0,-5.86331 -2.664,-9.57034 -6.93,-11.94143 h 39.391 z M 338.43,68.9492 h -59.934 c 11.723,28.75 29.832,74.5708 29.832,74.5708 0,0 16.246,-41.02 30.102,-74.5708 z M 401.816,3.73047 c -9.32,4.21875 -11.187,7.39843 -13.316,13.00783 -4.262,10.1406 -72.977,172.3207 -72.977,172.3207 0,0 -68.453,-162.1801 -72.98,-172.3207 C 240.145,11.6797 237.75,8.75 230.289,3.73047 h 32.492 c -6.922,2.64062 -7.722,6.87893 -5.59,13.00783 1.067,3.2031 7.989,20.8008 16.778,40.7812 h 68.984 c 8.258,-20.5312 15.715,-37.5781 17.317,-40.7812 2.128,-6.1289 0.261,-9.83986 -6.661,-13.00783 h 48.207 z M 204.762,56.1484 C 184.516,13.8086 152.027,13.0117 140.039,13.0117 c -55.664,0 -76.707,45.8164 -76.707,84.1797 0,43.1366 26.1016,78.8476 76.977,78.8476 13.046,0 46.074,-3.988 63.121,-43.418 0.531,-1.082 -2.395,39.43 -2.395,39.43 -20.777,9.051 -40.754,15.14 -62.859,15.14 -67.6526,0 -101.9807,-48.179 -101.9807,-93.4605 0,-55.6797 46.3164,-92.40237 99.0467,-92.40237 19.977,0 45.016,4.77343 67.121,18.07027 0,0 2.93,37.5508 2.399,36.75 v 0"
         style="fill:#ffffff;fill-opacity:1;fill-rule:nonzero;stroke:none"
         id="path20" /><path
         d="M 39.6484,330 H 1672.2"
         style="fill:none;stroke:#ffffff;stroke-width:10;stroke-linecap:butt;stroke-linejoin:miter;stroke-miterlimit:4;stroke-dasharray:none;stroke-opacity:1"
         id="path22" /></g></g></svg>
